<svg width="31" height="12" viewBox="0 0 31 12" fill="none" xmlns="http://www.w3.org/2000/svg">
<rect y="1" width="31" height="11" rx="5.5" fill="#ED1C24"/>
<path d="M7.368 8.56C7.368 8.744 7.352 8.904 7.32 9.04C7.352 9.168 7.368 9.328 7.368 9.52C7.368 9.704 7.352 9.864 7.32 10H6.36C6.328 9.864 6.312 9.704 6.312 9.52C6.312 9.328 6.328 9.168 6.36 9.04C6.328 8.904 6.312 8.744 6.312 8.56C6.312 8.368 6.328 8.208 6.36 8.08H4.44C4.472 8.208 4.488 8.368 4.488 8.56C4.488 8.744 4.472 8.904 4.44 9.04C4.472 9.168 4.488 9.328 4.488 9.52C4.488 9.704 4.472 9.864 4.44 10H3.48C3.448 9.864 3.432 9.704 3.432 9.52C3.432 9.328 3.448 9.168 3.48 9.04C3.448 8.904 3.432 8.744 3.432 8.56C3.432 8.368 3.448 8.208 3.48 8.08H3.84C3.808 7.944 3.792 7.784 3.792 7.6C3.792 7.408 3.808 7.248 3.84 7.12C3.808 6.984 3.792 6.824 3.792 6.64C3.792 6.448 3.808 6.288 3.84 6.16H4.08C4.048 6.024 4.032 5.864 4.032 5.68C4.032 5.488 4.048 5.328 4.08 5.2H4.44C4.408 5.064 4.392 4.904 4.392 4.72C4.392 4.528 4.408 4.368 4.44 4.24H4.68C4.648 4.104 4.632 3.944 4.632 3.76C4.632 3.568 4.648 3.408 4.68 3.28H6.12C6.152 3.408 6.168 3.568 6.168 3.76C6.168 3.944 6.152 4.104 6.12 4.24H6.36C6.392 4.368 6.408 4.528 6.408 4.72C6.408 4.904 6.392 5.064 6.36 5.2H6.72C6.752 5.328 6.768 5.488 6.768 5.68C6.768 5.864 6.752 6.024 6.72 6.16H6.96C6.992 6.288 7.008 6.448 7.008 6.64C7.008 6.824 6.992 6.984 6.96 7.12C6.992 7.248 7.008 7.408 7.008 7.6C7.008 7.784 6.992 7.944 6.96 8.08H7.32C7.352 8.208 7.368 8.368 7.368 8.56ZM6 7.12C5.968 6.984 5.952 6.824 5.952 6.64C5.952 6.448 5.968 6.288 6 6.16H5.76C5.728 6.024 5.712 5.864 5.712 5.68C5.712 5.488 5.728 5.328 5.76 5.2H5.04C5.072 5.328 5.088 5.488 5.088 5.68C5.088 5.864 5.072 6.024 5.04 6.16H4.8C4.832 6.288 4.848 6.448 4.848 6.64C4.848 6.824 4.832 6.984 4.8 7.12H6ZM9.24469 8.08C9.27669 8.208 9.29269 8.368 9.29269 8.56C9.29269 8.744 9.27669 8.904 9.24469 9.04H8.76469C8.79669 9.168 8.81269 9.328 8.81269 9.52C8.81269 9.704 8.79669 9.864 8.76469 10H8.28469C8.25269 9.864 8.23669 9.704 8.23669 9.52C8.23669 9.328 8.25269 9.168 8.28469 9.04C8.25269 8.904 8.23669 8.744 8.23669 8.56C8.23669 8.368 8.25269 8.208 8.28469 8.08C8.25269 7.944 8.23669 7.784 8.23669 7.6C8.23669 7.408 8.25269 7.248 8.28469 7.12C8.25269 6.984 8.23669 6.824 8.23669 6.64C8.23669 6.448 8.25269 6.288 8.28469 6.16C8.25269 6.024 8.23669 5.864 8.23669 5.68C8.23669 5.488 8.25269 5.328 8.28469 5.2C8.25269 5.064 8.23669 4.904 8.23669 4.72C8.23669 4.528 8.25269 4.368 8.28469 4.24C8.25269 4.104 8.23669 3.944 8.23669 3.76C8.23669 3.568 8.25269 3.408 8.28469 3.28H9.24469C9.27669 3.408 9.29269 3.568 9.29269 3.76C9.29269 3.944 9.27669 4.104 9.24469 4.24C9.27669 4.368 9.29269 4.528 9.29269 4.72C9.29269 4.904 9.27669 5.064 9.24469 5.2C9.27669 5.328 9.29269 5.488 9.29269 5.68C9.29269 5.864 9.27669 6.024 9.24469 6.16H9.72469C9.75669 6.288 9.77269 6.448 9.77269 6.64C9.77269 6.824 9.75669 6.984 9.72469 7.12H9.24469C9.27669 7.248 9.29269 7.408 9.29269 7.6C9.29269 7.784 9.27669 7.944 9.24469 8.08ZM12.1727 7.6C12.1727 7.784 12.1567 7.944 12.1247 8.08H11.6447C11.6767 8.208 11.6927 8.368 11.6927 8.56C11.6927 8.744 11.6767 8.904 11.6447 9.04H10.6847C10.6527 8.904 10.6367 8.744 10.6367 8.56C10.6367 8.368 10.6527 8.208 10.6847 8.08H11.1647C11.1327 7.944 11.1167 7.784 11.1167 7.6C11.1167 7.408 11.1327 7.248 11.1647 7.12H10.6847C10.6527 6.984 10.6367 6.824 10.6367 6.64C10.6367 6.448 10.6527 6.288 10.6847 6.16H9.72469C9.69269 6.024 9.67669 5.864 9.67669 5.68C9.67669 5.488 9.69269 5.328 9.72469 5.2H11.1647C11.1967 5.328 11.2127 5.488 11.2127 5.68C11.2127 5.864 11.1967 6.024 11.1647 6.16H11.6447C11.6767 6.288 11.6927 6.448 11.6927 6.64C11.6927 6.824 11.6767 6.984 11.6447 7.12H12.1247C12.1567 7.248 12.1727 7.408 12.1727 7.6ZM9.19669 9.52C9.19669 9.328 9.21269 9.168 9.24469 9.04H10.6847C10.7167 9.168 10.7327 9.328 10.7327 9.52C10.7327 9.704 10.7167 9.864 10.6847 10H9.24469C9.21269 9.864 9.19669 9.704 9.19669 9.52ZM16.9774 7.6C16.9774 7.784 16.9614 7.944 16.9294 8.08H16.5694C16.6014 8.208 16.6174 8.368 16.6174 8.56C16.6174 8.744 16.6014 8.904 16.5694 9.04H15.9694C16.0014 9.168 16.0174 9.328 16.0174 9.52C16.0174 9.704 16.0014 9.864 15.9694 10H14.0494C14.0174 9.864 14.0014 9.704 14.0014 9.52C14.0014 9.328 14.0174 9.168 14.0494 9.04H13.4494C13.4174 8.904 13.4014 8.744 13.4014 8.56C13.4014 8.368 13.4174 8.208 13.4494 8.08H13.0894C13.0574 7.944 13.0414 7.784 13.0414 7.6C13.0414 7.408 13.0574 7.248 13.0894 7.12H13.4494C13.4174 6.984 13.4014 6.824 13.4014 6.64C13.4014 6.448 13.4174 6.288 13.4494 6.16H14.0494C14.0174 6.024 14.0014 5.864 14.0014 5.68C14.0014 5.488 14.0174 5.328 14.0494 5.2H15.9694C16.0014 5.328 16.0174 5.488 16.0174 5.68C16.0174 5.864 16.0014 6.024 15.9694 6.16H16.5694C16.6014 6.288 16.6174 6.448 16.6174 6.64C16.6174 6.824 16.6014 6.984 16.5694 7.12H16.9294C16.9614 7.248 16.9774 7.408 16.9774 7.6ZM15.9694 8.08C15.9374 7.944 15.9214 7.784 15.9214 7.6C15.9214 7.408 15.9374 7.248 15.9694 7.12H15.6094C15.5774 6.984 15.5614 6.824 15.5614 6.64C15.5614 6.448 15.5774 6.288 15.6094 6.16H14.4094C14.4414 6.288 14.4574 6.448 14.4574 6.64C14.4574 6.824 14.4414 6.984 14.4094 7.12H14.0494C14.0814 7.248 14.0974 7.408 14.0974 7.6C14.0974 7.784 14.0814 7.944 14.0494 8.08H14.4094C14.4414 8.208 14.4574 8.368 14.4574 8.56C14.4574 8.744 14.4414 8.904 14.4094 9.04H15.6094C15.5774 8.904 15.5614 8.744 15.5614 8.56C15.5614 8.368 15.5774 8.208 15.6094 8.08H15.9694ZM19.2621 8.56C19.2621 8.744 19.2461 8.904 19.2141 9.04H20.4141C20.4461 9.168 20.4621 9.328 20.4621 9.52C20.4621 9.704 20.4461 9.864 20.4141 10H18.4941C18.4621 9.864 18.4461 9.704 18.4461 9.52C18.4461 9.328 18.4621 9.168 18.4941 9.04H17.8941C17.8621 8.904 17.8461 8.744 17.8461 8.56C17.8461 8.368 17.8621 8.208 17.8941 8.08C17.8621 7.944 17.8461 7.784 17.8461 7.6C17.8461 7.408 17.8621 7.248 17.8941 7.12C17.8621 6.984 17.8461 6.824 17.8461 6.64C17.8461 6.448 17.8621 6.288 17.8941 6.16C17.8621 6.024 17.8461 5.864 17.8461 5.68C17.8461 5.488 17.8621 5.328 17.8941 5.2H18.8541C18.8861 5.328 18.9021 5.488 18.9021 5.68C18.9021 5.864 18.8861 6.024 18.8541 6.16C18.8861 6.288 18.9021 6.448 18.9021 6.64C18.9021 6.824 18.8861 6.984 18.8541 7.12C18.8861 7.248 18.9021 7.408 18.9021 7.6C18.9021 7.784 18.8861 7.944 18.8541 8.08H19.2141C19.2461 8.208 19.2621 8.368 19.2621 8.56ZM21.7341 6.16C21.7661 6.288 21.7821 6.448 21.7821 6.64C21.7821 6.824 21.7661 6.984 21.7341 7.12C21.7661 7.248 21.7821 7.408 21.7821 7.6C21.7821 7.784 21.7661 7.944 21.7341 8.08C21.7661 8.208 21.7821 8.368 21.7821 8.56C21.7821 8.744 21.7661 8.904 21.7341 9.04C21.7661 9.168 21.7821 9.328 21.7821 9.52C21.7821 9.704 21.7661 9.864 21.7341 10H20.7741C20.7421 9.864 20.7261 9.704 20.7261 9.52C20.7261 9.328 20.7421 9.168 20.7741 9.04H20.4141C20.3821 8.904 20.3661 8.744 20.3661 8.56C20.3661 8.368 20.3821 8.208 20.4141 8.08H20.7741C20.7421 7.944 20.7261 7.784 20.7261 7.6C20.7261 7.408 20.7421 7.248 20.7741 7.12C20.7421 6.984 20.7261 6.824 20.7261 6.64C20.7261 6.448 20.7421 6.288 20.7741 6.16C20.7421 6.024 20.7261 5.864 20.7261 5.68C20.7261 5.488 20.7421 5.328 20.7741 5.2H21.7341C21.7661 5.328 21.7821 5.488 21.7821 5.68C21.7821 5.864 21.7661 6.024 21.7341 6.16ZM26.0588 9.04C26.0908 9.168 26.1068 9.328 26.1068 9.52C26.1068 9.704 26.0908 9.864 26.0588 10H24.1388C24.1068 9.864 24.0908 9.704 24.0908 9.52C24.0908 9.328 24.1068 9.168 24.1388 9.04H23.6588C23.6268 8.904 23.6108 8.744 23.6108 8.56C23.6108 8.368 23.6268 8.208 23.6588 8.08C23.6268 7.944 23.6108 7.784 23.6108 7.6C23.6108 7.408 23.6268 7.248 23.6588 7.12C23.6268 6.984 23.6108 6.824 23.6108 6.64C23.6108 6.448 23.6268 6.288 23.6588 6.16H22.6988C22.6668 6.024 22.6508 5.864 22.6508 5.68C22.6508 5.488 22.6668 5.328 22.6988 5.2H23.6588C23.6268 5.064 23.6108 4.904 23.6108 4.72C23.6108 4.528 23.6268 4.368 23.6588 4.24C23.6268 4.104 23.6108 3.944 23.6108 3.76C23.6108 3.568 23.6268 3.408 23.6588 3.28H24.6188C24.6508 3.408 24.6668 3.568 24.6668 3.76C24.6668 3.944 24.6508 4.104 24.6188 4.24C24.6508 4.368 24.6668 4.528 24.6668 4.72C24.6668 4.904 24.6508 5.064 24.6188 5.2H26.0588C26.0908 5.328 26.1068 5.488 26.1068 5.68C26.1068 5.864 26.0908 6.024 26.0588 6.16H24.6188C24.6508 6.288 24.6668 6.448 24.6668 6.64C24.6668 6.824 24.6508 6.984 24.6188 7.12C24.6508 7.248 24.6668 7.408 24.6668 7.6C24.6668 7.784 24.6508 7.944 24.6188 8.08C24.6508 8.208 24.6668 8.368 24.6668 8.56C24.6668 8.744 24.6508 8.904 24.6188 9.04H26.0588Z" fill="white"/>
</svg>
