<svg width="38" height="12" viewBox="0 0 38 12" fill="none" xmlns="http://www.w3.org/2000/svg">
<rect y="1" width="38" height="11" rx="5.5" fill="#ED1C24"/>
<path d="M6.32 8.08C6.352 8.208 6.368 8.368 6.368 8.56C6.368 8.744 6.352 8.904 6.32 9.04H5.84C5.872 9.168 5.888 9.328 5.888 9.52C5.888 9.704 5.872 9.864 5.84 10H3.44C3.408 9.864 3.392 9.704 3.392 9.52C3.392 9.328 3.408 9.168 3.44 9.04H2.96C2.928 8.904 2.912 8.744 2.912 8.56C2.912 8.368 2.928 8.208 2.96 8.08H2.48C2.448 7.944 2.432 7.784 2.432 7.6C2.432 7.408 2.448 7.248 2.48 7.12C2.448 6.984 2.432 6.824 2.432 6.64C2.432 6.448 2.448 6.288 2.48 6.16C2.448 6.024 2.432 5.864 2.432 5.68C2.432 5.488 2.448 5.328 2.48 5.2H2.96C2.928 5.064 2.912 4.904 2.912 4.72C2.912 4.528 2.928 4.368 2.96 4.24H3.44C3.408 4.104 3.392 3.944 3.392 3.76C3.392 3.568 3.408 3.408 3.44 3.28H5.84C5.872 3.408 5.888 3.568 5.888 3.76C5.888 3.944 5.872 4.104 5.84 4.24H6.32C6.352 4.368 6.368 4.528 6.368 4.72C6.368 4.904 6.352 5.064 6.32 5.2H5.36C5.328 5.064 5.312 4.904 5.312 4.72C5.312 4.528 5.328 4.368 5.36 4.24H3.92C3.952 4.368 3.968 4.528 3.968 4.72C3.968 4.904 3.952 5.064 3.92 5.2H3.44C3.472 5.328 3.488 5.488 3.488 5.68C3.488 5.864 3.472 6.024 3.44 6.16C3.472 6.288 3.488 6.448 3.488 6.64C3.488 6.824 3.472 6.984 3.44 7.12C3.472 7.248 3.488 7.408 3.488 7.6C3.488 7.784 3.472 7.944 3.44 8.08H3.92C3.952 8.208 3.968 8.368 3.968 8.56C3.968 8.744 3.952 8.904 3.92 9.04H5.36C5.328 8.904 5.312 8.744 5.312 8.56C5.312 8.368 5.328 8.208 5.36 8.08H6.32ZM11.1727 7.6C11.1727 7.784 11.1567 7.944 11.1247 8.08H10.7647C10.7967 8.208 10.8127 8.368 10.8127 8.56C10.8127 8.744 10.7967 8.904 10.7647 9.04H10.1647C10.1967 9.168 10.2127 9.328 10.2127 9.52C10.2127 9.704 10.1967 9.864 10.1647 10H8.24469C8.21269 9.864 8.19669 9.704 8.19669 9.52C8.19669 9.328 8.21269 9.168 8.24469 9.04H7.64469C7.61269 8.904 7.59669 8.744 7.59669 8.56C7.59669 8.368 7.61269 8.208 7.64469 8.08H7.28469C7.25269 7.944 7.23669 7.784 7.23669 7.6C7.23669 7.408 7.25269 7.248 7.28469 7.12H7.64469C7.61269 6.984 7.59669 6.824 7.59669 6.64C7.59669 6.448 7.61269 6.288 7.64469 6.16H8.24469C8.21269 6.024 8.19669 5.864 8.19669 5.68C8.19669 5.488 8.21269 5.328 8.24469 5.2H10.1647C10.1967 5.328 10.2127 5.488 10.2127 5.68C10.2127 5.864 10.1967 6.024 10.1647 6.16H10.7647C10.7967 6.288 10.8127 6.448 10.8127 6.64C10.8127 6.824 10.7967 6.984 10.7647 7.12H11.1247C11.1567 7.248 11.1727 7.408 11.1727 7.6ZM10.1647 8.08C10.1327 7.944 10.1167 7.784 10.1167 7.6C10.1167 7.408 10.1327 7.248 10.1647 7.12H9.80469C9.77269 6.984 9.75669 6.824 9.75669 6.64C9.75669 6.448 9.77269 6.288 9.80469 6.16H8.60469C8.63669 6.288 8.65269 6.448 8.65269 6.64C8.65269 6.824 8.63669 6.984 8.60469 7.12H8.24469C8.27669 7.248 8.29269 7.408 8.29269 7.6C8.29269 7.784 8.27669 7.944 8.24469 8.08H8.60469C8.63669 8.208 8.65269 8.368 8.65269 8.56C8.65269 8.744 8.63669 8.904 8.60469 9.04H9.80469C9.77269 8.904 9.75669 8.744 9.75669 8.56C9.75669 8.368 9.77269 8.208 9.80469 8.08H10.1647ZM12.9774 5.68C12.9774 5.864 12.9614 6.024 12.9294 6.16H13.4094C13.4414 6.288 13.4574 6.448 13.4574 6.64C13.4574 6.824 13.4414 6.984 13.4094 7.12H13.0494C13.0814 7.248 13.0974 7.408 13.0974 7.6C13.0974 7.784 13.0814 7.944 13.0494 8.08C13.0814 8.208 13.0974 8.368 13.0974 8.56C13.0974 8.744 13.0814 8.904 13.0494 9.04C13.0814 9.168 13.0974 9.328 13.0974 9.52C13.0974 9.704 13.0814 9.864 13.0494 10H12.0894C12.0574 9.864 12.0414 9.704 12.0414 9.52C12.0414 9.328 12.0574 9.168 12.0894 9.04C12.0574 8.904 12.0414 8.744 12.0414 8.56C12.0414 8.368 12.0574 8.208 12.0894 8.08C12.0574 7.944 12.0414 7.784 12.0414 7.6C12.0414 7.408 12.0574 7.248 12.0894 7.12C12.0574 6.984 12.0414 6.824 12.0414 6.64C12.0414 6.448 12.0574 6.288 12.0894 6.16C12.0574 6.024 12.0414 5.864 12.0414 5.68C12.0414 5.488 12.0574 5.328 12.0894 5.2H12.9294C12.9614 5.328 12.9774 5.488 12.9774 5.68ZM15.9294 7.12C15.9614 7.248 15.9774 7.408 15.9774 7.6C15.9774 7.784 15.9614 7.944 15.9294 8.08C15.9614 8.208 15.9774 8.368 15.9774 8.56C15.9774 8.744 15.9614 8.904 15.9294 9.04C15.9614 9.168 15.9774 9.328 15.9774 9.52C15.9774 9.704 15.9614 9.864 15.9294 10H14.9694C14.9374 9.864 14.9214 9.704 14.9214 9.52C14.9214 9.328 14.9374 9.168 14.9694 9.04C14.9374 8.904 14.9214 8.744 14.9214 8.56C14.9214 8.368 14.9374 8.208 14.9694 8.08C14.9374 7.944 14.9214 7.784 14.9214 7.6C14.9214 7.408 14.9374 7.248 14.9694 7.12C14.9374 6.984 14.9214 6.824 14.9214 6.64C14.9214 6.448 14.9374 6.288 14.9694 6.16H13.4094C13.3774 6.024 13.3614 5.864 13.3614 5.68C13.3614 5.488 13.3774 5.328 13.4094 5.2H15.3294C15.3614 5.328 15.3774 5.488 15.3774 5.68C15.3774 5.864 15.3614 6.024 15.3294 6.16H15.9294C15.9614 6.288 15.9774 6.448 15.9774 6.64C15.9774 6.824 15.9614 6.984 15.9294 7.12ZM20.2541 9.04C20.2861 9.168 20.3021 9.328 20.3021 9.52C20.3021 9.704 20.2861 9.864 20.2541 10H18.3341C18.3021 9.864 18.2861 9.704 18.2861 9.52C18.2861 9.328 18.3021 9.168 18.3341 9.04H17.8541C17.8221 8.904 17.8061 8.744 17.8061 8.56C17.8061 8.368 17.8221 8.208 17.8541 8.08C17.8221 7.944 17.8061 7.784 17.8061 7.6C17.8061 7.408 17.8221 7.248 17.8541 7.12C17.8221 6.984 17.8061 6.824 17.8061 6.64C17.8061 6.448 17.8221 6.288 17.8541 6.16H16.8941C16.8621 6.024 16.8461 5.864 16.8461 5.68C16.8461 5.488 16.8621 5.328 16.8941 5.2H17.8541C17.8221 5.064 17.8061 4.904 17.8061 4.72C17.8061 4.528 17.8221 4.368 17.8541 4.24C17.8221 4.104 17.8061 3.944 17.8061 3.76C17.8061 3.568 17.8221 3.408 17.8541 3.28H18.8141C18.8461 3.408 18.8621 3.568 18.8621 3.76C18.8621 3.944 18.8461 4.104 18.8141 4.24C18.8461 4.368 18.8621 4.528 18.8621 4.72C18.8621 4.904 18.8461 5.064 18.8141 5.2H20.2541C20.2861 5.328 20.3021 5.488 20.3021 5.68C20.3021 5.864 20.2861 6.024 20.2541 6.16H18.8141C18.8461 6.288 18.8621 6.448 18.8621 6.64C18.8621 6.824 18.8461 6.984 18.8141 7.12C18.8461 7.248 18.8621 7.408 18.8621 7.6C18.8621 7.784 18.8461 7.944 18.8141 8.08C18.8461 8.208 18.8621 8.368 18.8621 8.56C18.8621 8.744 18.8461 8.904 18.8141 9.04H20.2541ZM25.5388 9.04C25.5708 9.168 25.5868 9.328 25.5868 9.52C25.5868 9.704 25.5708 9.864 25.5388 10H24.5788C24.5468 9.864 24.5308 9.704 24.5308 9.52C24.5308 9.328 24.5468 9.168 24.5788 9.04H24.0988C24.0668 8.904 24.0508 8.744 24.0508 8.56C24.0508 8.368 24.0668 8.208 24.0988 8.08H22.6588C22.6908 8.208 22.7068 8.368 22.7068 8.56C22.7068 8.744 22.6908 8.904 22.6588 9.04H24.0988C24.1308 9.168 24.1468 9.328 24.1468 9.52C24.1468 9.704 24.1308 9.864 24.0988 10H22.1788C22.1468 9.864 22.1308 9.704 22.1308 9.52C22.1308 9.328 22.1468 9.168 22.1788 9.04H21.6988C21.6668 8.904 21.6508 8.744 21.6508 8.56C21.6508 8.368 21.6668 8.208 21.6988 8.08H22.1788C22.1468 7.944 22.1308 7.784 22.1308 7.6C22.1308 7.408 22.1468 7.248 22.1788 7.12H24.0988C24.0668 6.984 24.0508 6.824 24.0508 6.64C24.0508 6.448 24.0668 6.288 24.0988 6.16H22.4188C22.3868 6.024 22.3708 5.864 22.3708 5.68C22.3708 5.488 22.3868 5.328 22.4188 5.2H24.5788C24.6108 5.328 24.6268 5.488 24.6268 5.68C24.6268 5.864 24.6108 6.024 24.5788 6.16H25.0588C25.0908 6.288 25.1068 6.448 25.1068 6.64C25.1068 6.824 25.0908 6.984 25.0588 7.12C25.0908 7.248 25.1068 7.408 25.1068 7.6C25.1068 7.784 25.0908 7.944 25.0588 8.08C25.0908 8.208 25.1068 8.368 25.1068 8.56C25.1068 8.744 25.0908 8.904 25.0588 9.04H25.5388ZM30.3434 8.08C30.3754 8.208 30.3914 8.368 30.3914 8.56C30.3914 8.744 30.3754 8.904 30.3434 9.04H29.8634C29.8954 9.168 29.9114 9.328 29.9114 9.52C29.9114 9.704 29.8954 9.864 29.8634 10H27.4634C27.4314 9.864 27.4154 9.704 27.4154 9.52C27.4154 9.328 27.4314 9.168 27.4634 9.04H26.9834C26.9514 8.904 26.9354 8.744 26.9354 8.56C26.9354 8.368 26.9514 8.208 26.9834 8.08H26.5034C26.4714 7.944 26.4554 7.784 26.4554 7.6C26.4554 7.408 26.4714 7.248 26.5034 7.12H26.9834C26.9514 6.984 26.9354 6.824 26.9354 6.64C26.9354 6.448 26.9514 6.288 26.9834 6.16H27.4634C27.4314 6.024 27.4154 5.864 27.4154 5.68C27.4154 5.488 27.4314 5.328 27.4634 5.2H29.8634C29.8954 5.328 29.9114 5.488 29.9114 5.68C29.9114 5.864 29.8954 6.024 29.8634 6.16H30.3434C30.3754 6.288 30.3914 6.448 30.3914 6.64C30.3914 6.824 30.3754 6.984 30.3434 7.12H29.3834C29.3514 6.984 29.3354 6.824 29.3354 6.64C29.3354 6.448 29.3514 6.288 29.3834 6.16H27.9434C27.9754 6.288 27.9914 6.448 27.9914 6.64C27.9914 6.824 27.9754 6.984 27.9434 7.12H27.4634C27.4954 7.248 27.5114 7.408 27.5114 7.6C27.5114 7.784 27.4954 7.944 27.4634 8.08H27.9434C27.9754 8.208 27.9914 8.368 27.9914 8.56C27.9914 8.744 27.9754 8.904 27.9434 9.04H29.3834C29.3514 8.904 29.3354 8.744 29.3354 8.56C29.3354 8.368 29.3514 8.208 29.3834 8.08H30.3434ZM34.6681 9.04C34.7001 9.168 34.7161 9.328 34.7161 9.52C34.7161 9.704 34.7001 9.864 34.6681 10H32.7481C32.7161 9.864 32.7001 9.704 32.7001 9.52C32.7001 9.328 32.7161 9.168 32.7481 9.04H32.2681C32.2361 8.904 32.2201 8.744 32.2201 8.56C32.2201 8.368 32.2361 8.208 32.2681 8.08C32.2361 7.944 32.2201 7.784 32.2201 7.6C32.2201 7.408 32.2361 7.248 32.2681 7.12C32.2361 6.984 32.2201 6.824 32.2201 6.64C32.2201 6.448 32.2361 6.288 32.2681 6.16H31.3081C31.2761 6.024 31.2601 5.864 31.2601 5.68C31.2601 5.488 31.2761 5.328 31.3081 5.2H32.2681C32.2361 5.064 32.2201 4.904 32.2201 4.72C32.2201 4.528 32.2361 4.368 32.2681 4.24C32.2361 4.104 32.2201 3.944 32.2201 3.76C32.2201 3.568 32.2361 3.408 32.2681 3.28H33.2281C33.2601 3.408 33.2761 3.568 33.2761 3.76C33.2761 3.944 33.2601 4.104 33.2281 4.24C33.2601 4.368 33.2761 4.528 33.2761 4.72C33.2761 4.904 33.2601 5.064 33.2281 5.2H34.6681C34.7001 5.328 34.7161 5.488 34.7161 5.68C34.7161 5.864 34.7001 6.024 34.6681 6.16H33.2281C33.2601 6.288 33.2761 6.448 33.2761 6.64C33.2761 6.824 33.2601 6.984 33.2281 7.12C33.2601 7.248 33.2761 7.408 33.2761 7.6C33.2761 7.784 33.2601 7.944 33.2281 8.08C33.2601 8.208 33.2761 8.368 33.2761 8.56C33.2761 8.744 33.2601 8.904 33.2281 9.04H34.6681Z" fill="white"/>
</svg>
