<svg width="27" height="12" viewBox="0 0 27 12" fill="none" xmlns="http://www.w3.org/2000/svg">
<rect y="1" width="27" height="11" rx="5.5" fill="#ED1C24"/>
<path d="M8.32 4.24C8.352 4.368 8.368 4.528 8.368 4.72C8.368 4.904 8.352 5.064 8.32 5.2C8.352 5.328 8.368 5.488 8.368 5.68C8.368 5.864 8.352 6.024 8.32 6.16C8.352 6.288 8.368 6.448 8.368 6.64C8.368 6.824 8.352 6.984 8.32 7.12C8.352 7.248 8.368 7.408 8.368 7.6C8.368 7.784 8.352 7.944 8.32 8.08C8.352 8.208 8.368 8.368 8.368 8.56C8.368 8.744 8.352 8.904 8.32 9.04C8.352 9.168 8.368 9.328 8.368 9.52C8.368 9.704 8.352 9.864 8.32 10H7.36C7.328 9.864 7.312 9.704 7.312 9.52C7.312 9.328 7.328 9.168 7.36 9.04C7.328 8.904 7.312 8.744 7.312 8.56C7.312 8.368 7.328 8.208 7.36 8.08C7.328 7.944 7.312 7.784 7.312 7.6C7.312 7.408 7.328 7.248 7.36 7.12H5.44C5.472 7.248 5.488 7.408 5.488 7.6C5.488 7.784 5.472 7.944 5.44 8.08C5.472 8.208 5.488 8.368 5.488 8.56C5.488 8.744 5.472 8.904 5.44 9.04C5.472 9.168 5.488 9.328 5.488 9.52C5.488 9.704 5.472 9.864 5.44 10H4.48C4.448 9.864 4.432 9.704 4.432 9.52C4.432 9.328 4.448 9.168 4.48 9.04C4.448 8.904 4.432 8.744 4.432 8.56C4.432 8.368 4.448 8.208 4.48 8.08C4.448 7.944 4.432 7.784 4.432 7.6C4.432 7.408 4.448 7.248 4.48 7.12C4.448 6.984 4.432 6.824 4.432 6.64C4.432 6.448 4.448 6.288 4.48 6.16C4.448 6.024 4.432 5.864 4.432 5.68C4.432 5.488 4.448 5.328 4.48 5.2C4.448 5.064 4.432 4.904 4.432 4.72C4.432 4.528 4.448 4.368 4.48 4.24C4.448 4.104 4.432 3.944 4.432 3.76C4.432 3.568 4.448 3.408 4.48 3.28H5.44C5.472 3.408 5.488 3.568 5.488 3.76C5.488 3.944 5.472 4.104 5.44 4.24C5.472 4.368 5.488 4.528 5.488 4.72C5.488 4.904 5.472 5.064 5.44 5.2C5.472 5.328 5.488 5.488 5.488 5.68C5.488 5.864 5.472 6.024 5.44 6.16H7.36C7.328 6.024 7.312 5.864 7.312 5.68C7.312 5.488 7.328 5.328 7.36 5.2C7.328 5.064 7.312 4.904 7.312 4.72C7.312 4.528 7.328 4.368 7.36 4.24C7.328 4.104 7.312 3.944 7.312 3.76C7.312 3.568 7.328 3.408 7.36 3.28H8.32C8.352 3.408 8.368 3.568 8.368 3.76C8.368 3.944 8.352 4.104 8.32 4.24ZM13.1727 7.6C13.1727 7.784 13.1567 7.944 13.1247 8.08H12.7647C12.7967 8.208 12.8127 8.368 12.8127 8.56C12.8127 8.744 12.7967 8.904 12.7647 9.04H12.1647C12.1967 9.168 12.2127 9.328 12.2127 9.52C12.2127 9.704 12.1967 9.864 12.1647 10H10.2447C10.2127 9.864 10.1967 9.704 10.1967 9.52C10.1967 9.328 10.2127 9.168 10.2447 9.04H9.64469C9.61269 8.904 9.59669 8.744 9.59669 8.56C9.59669 8.368 9.61269 8.208 9.64469 8.08H9.28469C9.25269 7.944 9.23669 7.784 9.23669 7.6C9.23669 7.408 9.25269 7.248 9.28469 7.12H9.64469C9.61269 6.984 9.59669 6.824 9.59669 6.64C9.59669 6.448 9.61269 6.288 9.64469 6.16H10.2447C10.2127 6.024 10.1967 5.864 10.1967 5.68C10.1967 5.488 10.2127 5.328 10.2447 5.2H12.1647C12.1967 5.328 12.2127 5.488 12.2127 5.68C12.2127 5.864 12.1967 6.024 12.1647 6.16H12.7647C12.7967 6.288 12.8127 6.448 12.8127 6.64C12.8127 6.824 12.7967 6.984 12.7647 7.12H13.1247C13.1567 7.248 13.1727 7.408 13.1727 7.6ZM12.1647 8.08C12.1327 7.944 12.1167 7.784 12.1167 7.6C12.1167 7.408 12.1327 7.248 12.1647 7.12H11.8047C11.7727 6.984 11.7567 6.824 11.7567 6.64C11.7567 6.448 11.7727 6.288 11.8047 6.16H10.6047C10.6367 6.288 10.6527 6.448 10.6527 6.64C10.6527 6.824 10.6367 6.984 10.6047 7.12H10.2447C10.2767 7.248 10.2927 7.408 10.2927 7.6C10.2927 7.784 10.2767 7.944 10.2447 8.08H10.6047C10.6367 8.208 10.6527 8.368 10.6527 8.56C10.6527 8.744 10.6367 8.904 10.6047 9.04H11.8047C11.7727 8.904 11.7567 8.744 11.7567 8.56C11.7567 8.368 11.7727 8.208 11.8047 8.08H12.1647ZM14.7374 5.68C14.7374 5.864 14.7214 6.024 14.6894 6.16H15.0494C15.0814 6.288 15.0974 6.448 15.0974 6.64C15.0974 6.824 15.0814 6.984 15.0494 7.12C15.0814 7.248 15.0974 7.408 15.0974 7.6C15.0974 7.784 15.0814 7.944 15.0494 8.08C15.0814 8.208 15.0974 8.368 15.0974 8.56C15.0974 8.744 15.0814 8.904 15.0494 9.04C15.0814 9.168 15.0974 9.328 15.0974 9.52C15.0974 9.704 15.0814 9.864 15.0494 10H14.0894C14.0574 9.864 14.0414 9.704 14.0414 9.52C14.0414 9.328 14.0574 9.168 14.0894 9.04C14.0574 8.904 14.0414 8.744 14.0414 8.56C14.0414 8.368 14.0574 8.208 14.0894 8.08C14.0574 7.944 14.0414 7.784 14.0414 7.6C14.0414 7.408 14.0574 7.248 14.0894 7.12C14.0574 6.984 14.0414 6.824 14.0414 6.64C14.0414 6.448 14.0574 6.288 14.0894 6.16C14.0574 6.024 14.0414 5.864 14.0414 5.68C14.0414 5.488 14.0574 5.328 14.0894 5.2H14.6894C14.7214 5.328 14.7374 5.488 14.7374 5.68ZM16.0574 5.68C16.0574 5.864 16.0414 6.024 16.0094 6.16H16.3694C16.4014 6.288 16.4174 6.448 16.4174 6.64C16.4174 6.824 16.4014 6.984 16.3694 7.12C16.4014 7.248 16.4174 7.408 16.4174 7.6C16.4174 7.784 16.4014 7.944 16.3694 8.08C16.4014 8.208 16.4174 8.368 16.4174 8.56C16.4174 8.744 16.4014 8.904 16.3694 9.04C16.4014 9.168 16.4174 9.328 16.4174 9.52C16.4174 9.704 16.4014 9.864 16.3694 10H15.6494C15.6174 9.864 15.6014 9.704 15.6014 9.52C15.6014 9.328 15.6174 9.168 15.6494 9.04C15.6174 8.904 15.6014 8.744 15.6014 8.56C15.6014 8.368 15.6174 8.208 15.6494 8.08C15.6174 7.944 15.6014 7.784 15.6014 7.6C15.6014 7.408 15.6174 7.248 15.6494 7.12C15.6174 6.984 15.6014 6.824 15.6014 6.64C15.6014 6.448 15.6174 6.288 15.6494 6.16H15.0494C15.0174 6.024 15.0014 5.864 15.0014 5.68C15.0014 5.488 15.0174 5.328 15.0494 5.2H16.0094C16.0414 5.328 16.0574 5.488 16.0574 5.68ZM17.9294 7.12C17.9614 7.248 17.9774 7.408 17.9774 7.6C17.9774 7.784 17.9614 7.944 17.9294 8.08C17.9614 8.208 17.9774 8.368 17.9774 8.56C17.9774 8.744 17.9614 8.904 17.9294 9.04C17.9614 9.168 17.9774 9.328 17.9774 9.52C17.9774 9.704 17.9614 9.864 17.9294 10H16.9694C16.9374 9.864 16.9214 9.704 16.9214 9.52C16.9214 9.328 16.9374 9.168 16.9694 9.04C16.9374 8.904 16.9214 8.744 16.9214 8.56C16.9214 8.368 16.9374 8.208 16.9694 8.08C16.9374 7.944 16.9214 7.784 16.9214 7.6C16.9214 7.408 16.9374 7.248 16.9694 7.12C16.9374 6.984 16.9214 6.824 16.9214 6.64C16.9214 6.448 16.9374 6.288 16.9694 6.16H16.3694C16.3374 6.024 16.3214 5.864 16.3214 5.68C16.3214 5.488 16.3374 5.328 16.3694 5.2H17.4494C17.4814 5.328 17.4974 5.488 17.4974 5.68C17.4974 5.864 17.4814 6.024 17.4494 6.16H17.9294C17.9614 6.288 17.9774 6.448 17.9774 6.64C17.9774 6.824 17.9614 6.984 17.9294 7.12ZM22.7821 6.64C22.7821 6.824 22.7661 6.984 22.7341 7.12C22.7661 7.248 22.7821 7.408 22.7821 7.6C22.7821 7.784 22.7661 7.944 22.7341 8.08H20.2141C20.2461 8.208 20.2621 8.368 20.2621 8.56C20.2621 8.744 20.2461 8.904 20.2141 9.04H22.2541C22.2861 9.168 22.3021 9.328 22.3021 9.52C22.3021 9.704 22.2861 9.864 22.2541 10H19.8541C19.8221 9.864 19.8061 9.704 19.8061 9.52C19.8061 9.328 19.8221 9.168 19.8541 9.04H19.2541C19.2221 8.904 19.2061 8.744 19.2061 8.56C19.2061 8.368 19.2221 8.208 19.2541 8.08H18.8941C18.8621 7.944 18.8461 7.784 18.8461 7.6C18.8461 7.408 18.8621 7.248 18.8941 7.12H19.2541C19.2221 6.984 19.2061 6.824 19.2061 6.64C19.2061 6.448 19.2221 6.288 19.2541 6.16H19.8541C19.8221 6.024 19.8061 5.864 19.8061 5.68C19.8061 5.488 19.8221 5.328 19.8541 5.2H22.2541C22.2861 5.328 22.3021 5.488 22.3021 5.68C22.3021 5.864 22.2861 6.024 22.2541 6.16H22.7341C22.7661 6.288 22.7821 6.448 22.7821 6.64ZM21.7741 7.12C21.7421 6.984 21.7261 6.824 21.7261 6.64C21.7261 6.448 21.7421 6.288 21.7741 6.16H20.2141C20.2461 6.288 20.2621 6.448 20.2621 6.64C20.2621 6.824 20.2461 6.984 20.2141 7.12H21.7741Z" fill="white"/>
</svg>
