<?xml version="1.0" encoding="utf-8"?>
<svg viewBox="296.693 112.154 35.021 42.753" xmlns="http://www.w3.org/2000/svg">
  <g id="g-1" transform="matrix(-1, 0, 0, 1, 381.924133, 56.87241)">
    <path id="path-1" data-name="Path 29" d="M 84.64 55.868 C 84.264 55.494 83.756 55.283 83.226 55.282 L 52.382 55.282 C 51.277 55.282 50.382 56.177 50.382 57.282 L 50.382 69.795 C 50.382 70.9 51.277 71.795 52.382 71.795 L 56.199 71.795 L 56.199 97.935 L 82.632 98.032 C 84.172 98.032 85.134 96.365 84.364 95.032 C 84.007 94.413 83.347 94.032 82.632 94.032 L 79.414 94.032 L 79.414 71.793 L 83.231 71.793 C 84.336 71.793 85.231 70.898 85.231 69.793 L 85.231 57.282 C 85.229 56.751 85.016 56.243 84.64 55.868 Z M 75.41 93.821 L 60.198 93.821 L 60.198 71.91 L 75.414 71.91 L 75.41 93.821 Z M 81.225 67.795 L 54.381 67.795 L 54.381 59.281 L 81.225 59.281 L 81.225 67.795 Z" style=""/>
  </g>
  <g id="g-2" transform="matrix(1, 0, 0, 1, 246.48349, 56.875587)">
    <path id="path-2" data-name="Path 29" d="M 84.64 55.868 C 84.264 55.494 83.756 55.283 83.226 55.282 L 52.382 55.282 C 51.277 55.282 50.382 56.177 50.382 57.282 L 50.382 69.795 C 50.382 70.9 51.277 71.795 52.382 71.795 L 56.199 71.795 L 56.199 97.935 L 82.632 98.032 C 84.172 98.032 85.134 96.365 84.364 95.032 C 84.007 94.413 83.347 94.032 82.632 94.032 L 79.414 94.032 L 79.414 71.793 L 83.231 71.793 C 84.336 71.793 85.231 70.898 85.231 69.793 L 85.231 57.282 C 85.229 56.751 85.016 56.243 84.64 55.868 Z M 75.41 93.821 L 60.198 93.821 L 60.198 71.91 L 75.414 71.91 L 75.41 93.821 Z M 81.225 67.795 L 54.381 67.795 L 54.381 59.281 L 81.225 59.281 L 81.225 67.795 Z" style=""/>
  </g>
</svg>