<svg width="41" height="12" viewBox="0 0 41 12" fill="none" xmlns="http://www.w3.org/2000/svg">
<rect y="1" width="41" height="11" rx="5.5" fill="#ED1C24"/>
<path d="M8.368 4.72C8.368 4.904 8.352 5.064 8.32 5.2C8.352 5.328 8.368 5.488 8.368 5.68C8.368 5.864 8.352 6.024 8.32 6.16H7.84C7.872 6.288 7.888 6.448 7.888 6.64C7.888 6.824 7.872 6.984 7.84 7.12H5.44C5.472 7.248 5.488 7.408 5.488 7.6C5.488 7.784 5.472 7.944 5.44 8.08C5.472 8.208 5.488 8.368 5.488 8.56C5.488 8.744 5.472 8.904 5.44 9.04C5.472 9.168 5.488 9.328 5.488 9.52C5.488 9.704 5.472 9.864 5.44 10H4.48C4.448 9.864 4.432 9.704 4.432 9.52C4.432 9.328 4.448 9.168 4.48 9.04C4.448 8.904 4.432 8.744 4.432 8.56C4.432 8.368 4.448 8.208 4.48 8.08C4.448 7.944 4.432 7.784 4.432 7.6C4.432 7.408 4.448 7.248 4.48 7.12C4.448 6.984 4.432 6.824 4.432 6.64C4.432 6.448 4.448 6.288 4.48 6.16C4.448 6.024 4.432 5.864 4.432 5.68C4.432 5.488 4.448 5.328 4.48 5.2C4.448 5.064 4.432 4.904 4.432 4.72C4.432 4.528 4.448 4.368 4.48 4.24C4.448 4.104 4.432 3.944 4.432 3.76C4.432 3.568 4.448 3.408 4.48 3.28H7.84C7.872 3.408 7.888 3.568 7.888 3.76C7.888 3.944 7.872 4.104 7.84 4.24H8.32C8.352 4.368 8.368 4.528 8.368 4.72ZM7.36 6.16C7.328 6.024 7.312 5.864 7.312 5.68C7.312 5.488 7.328 5.328 7.36 5.2C7.328 5.064 7.312 4.904 7.312 4.72C7.312 4.528 7.328 4.368 7.36 4.24H5.44C5.472 4.368 5.488 4.528 5.488 4.72C5.488 4.904 5.472 5.064 5.44 5.2C5.472 5.328 5.488 5.488 5.488 5.68C5.488 5.864 5.472 6.024 5.44 6.16H7.36ZM13.1247 6.16C13.1567 6.288 13.1727 6.448 13.1727 6.64C13.1727 6.824 13.1567 6.984 13.1247 7.12H12.1647C12.1327 6.984 12.1167 6.824 12.1167 6.64C12.1167 6.448 12.1327 6.288 12.1647 6.16H11.3247C11.3567 6.288 11.3727 6.448 11.3727 6.64C11.3727 6.824 11.3567 6.984 11.3247 7.12H10.9647C10.9967 7.248 11.0127 7.408 11.0127 7.6C11.0127 7.784 10.9967 7.944 10.9647 8.08C10.9967 8.208 11.0127 8.368 11.0127 8.56C11.0127 8.744 10.9967 8.904 10.9647 9.04H11.6847C11.7167 9.168 11.7327 9.328 11.7327 9.52C11.7327 9.704 11.7167 9.864 11.6847 10H9.28469C9.25269 9.864 9.23669 9.704 9.23669 9.52C9.23669 9.328 9.25269 9.168 9.28469 9.04H10.0047C9.97269 8.904 9.95669 8.744 9.95669 8.56C9.95669 8.368 9.97269 8.208 10.0047 8.08C9.97269 7.944 9.95669 7.784 9.95669 7.6C9.95669 7.408 9.97269 7.248 10.0047 7.12C9.97269 6.984 9.95669 6.824 9.95669 6.64C9.95669 6.448 9.97269 6.288 10.0047 6.16H9.28469C9.25269 6.024 9.23669 5.864 9.23669 5.68C9.23669 5.488 9.25269 5.328 9.28469 5.2H10.4847C10.5167 5.328 10.5327 5.488 10.5327 5.68C10.5327 5.864 10.5167 6.024 10.4847 6.16H10.9647C10.9327 6.024 10.9167 5.864 10.9167 5.68C10.9167 5.488 10.9327 5.328 10.9647 5.2H12.7647C12.7967 5.328 12.8127 5.488 12.8127 5.68C12.8127 5.864 12.7967 6.024 12.7647 6.16H13.1247ZM17.9774 7.6C17.9774 7.784 17.9614 7.944 17.9294 8.08H17.5694C17.6014 8.208 17.6174 8.368 17.6174 8.56C17.6174 8.744 17.6014 8.904 17.5694 9.04H16.9694C17.0014 9.168 17.0174 9.328 17.0174 9.52C17.0174 9.704 17.0014 9.864 16.9694 10H15.0494C15.0174 9.864 15.0014 9.704 15.0014 9.52C15.0014 9.328 15.0174 9.168 15.0494 9.04H14.4494C14.4174 8.904 14.4014 8.744 14.4014 8.56C14.4014 8.368 14.4174 8.208 14.4494 8.08H14.0894C14.0574 7.944 14.0414 7.784 14.0414 7.6C14.0414 7.408 14.0574 7.248 14.0894 7.12H14.4494C14.4174 6.984 14.4014 6.824 14.4014 6.64C14.4014 6.448 14.4174 6.288 14.4494 6.16H15.0494C15.0174 6.024 15.0014 5.864 15.0014 5.68C15.0014 5.488 15.0174 5.328 15.0494 5.2H16.9694C17.0014 5.328 17.0174 5.488 17.0174 5.68C17.0174 5.864 17.0014 6.024 16.9694 6.16H17.5694C17.6014 6.288 17.6174 6.448 17.6174 6.64C17.6174 6.824 17.6014 6.984 17.5694 7.12H17.9294C17.9614 7.248 17.9774 7.408 17.9774 7.6ZM16.9694 8.08C16.9374 7.944 16.9214 7.784 16.9214 7.6C16.9214 7.408 16.9374 7.248 16.9694 7.12H16.6094C16.5774 6.984 16.5614 6.824 16.5614 6.64C16.5614 6.448 16.5774 6.288 16.6094 6.16H15.4094C15.4414 6.288 15.4574 6.448 15.4574 6.64C15.4574 6.824 15.4414 6.984 15.4094 7.12H15.0494C15.0814 7.248 15.0974 7.408 15.0974 7.6C15.0974 7.784 15.0814 7.944 15.0494 8.08H15.4094C15.4414 8.208 15.4574 8.368 15.4574 8.56C15.4574 8.744 15.4414 8.904 15.4094 9.04H16.6094C16.5774 8.904 16.5614 8.744 16.5614 8.56C16.5614 8.368 16.5774 8.208 16.6094 8.08H16.9694ZM22.7341 4.24C22.7661 4.368 22.7821 4.528 22.7821 4.72C22.7821 4.904 22.7661 5.064 22.7341 5.2C22.7661 5.328 22.7821 5.488 22.7821 5.68C22.7821 5.864 22.7661 6.024 22.7341 6.16C22.7661 6.288 22.7821 6.448 22.7821 6.64C22.7821 6.824 22.7661 6.984 22.7341 7.12C22.7661 7.248 22.7821 7.408 22.7821 7.6C22.7821 7.784 22.7661 7.944 22.7341 8.08C22.7661 8.208 22.7821 8.368 22.7821 8.56C22.7821 8.744 22.7661 8.904 22.7341 9.04C22.7661 9.168 22.7821 9.328 22.7821 9.52C22.7821 9.704 22.7661 9.864 22.7341 10H21.7741C21.7421 9.864 21.7261 9.704 21.7261 9.52C21.7261 9.328 21.7421 9.168 21.7741 9.04H21.4141C21.3821 8.904 21.3661 8.744 21.3661 8.56C21.3661 8.368 21.3821 8.208 21.4141 8.08H21.7741C21.7421 7.944 21.7261 7.784 21.7261 7.6C21.7261 7.408 21.7421 7.248 21.7741 7.12H21.4141C21.3821 6.984 21.3661 6.824 21.3661 6.64C21.3661 6.448 21.3821 6.288 21.4141 6.16H21.7741C21.7421 6.024 21.7261 5.864 21.7261 5.68C21.7261 5.488 21.7421 5.328 21.7741 5.2C21.7421 5.064 21.7261 4.904 21.7261 4.72C21.7261 4.528 21.7421 4.368 21.7741 4.24C21.7421 4.104 21.7261 3.944 21.7261 3.76C21.7261 3.568 21.7421 3.408 21.7741 3.28H22.7341C22.7661 3.408 22.7821 3.568 22.7821 3.76C22.7821 3.944 22.7661 4.104 22.7341 4.24ZM21.2221 5.68C21.2221 5.864 21.2061 6.024 21.1741 6.16H19.9741C20.0061 6.288 20.0221 6.448 20.0221 6.64C20.0221 6.824 20.0061 6.984 19.9741 7.12H19.6141C19.6461 7.248 19.6621 7.408 19.6621 7.6C19.6621 7.784 19.6461 7.944 19.6141 8.08H19.9741C20.0061 8.208 20.0221 8.368 20.0221 8.56C20.0221 8.744 20.0061 8.904 19.9741 9.04H21.1741C21.2061 9.168 21.2221 9.328 21.2221 9.52C21.2221 9.704 21.2061 9.864 21.1741 10H19.8541C19.8221 9.864 19.8061 9.704 19.8061 9.52C19.8061 9.328 19.8221 9.168 19.8541 9.04H19.2541C19.2221 8.904 19.2061 8.744 19.2061 8.56C19.2061 8.368 19.2221 8.208 19.2541 8.08H18.8941C18.8621 7.944 18.8461 7.784 18.8461 7.6C18.8461 7.408 18.8621 7.248 18.8941 7.12H19.2541C19.2221 6.984 19.2061 6.824 19.2061 6.64C19.2061 6.448 19.2221 6.288 19.2541 6.16H19.8541C19.8221 6.024 19.8061 5.864 19.8061 5.68C19.8061 5.488 19.8221 5.328 19.8541 5.2H21.1741C21.2061 5.328 21.2221 5.488 21.2221 5.68ZM25.0668 8.56C25.0668 8.744 25.0508 8.904 25.0188 9.04H26.2188C26.2508 9.168 26.2668 9.328 26.2668 9.52C26.2668 9.704 26.2508 9.864 26.2188 10H24.2988C24.2668 9.864 24.2508 9.704 24.2508 9.52C24.2508 9.328 24.2668 9.168 24.2988 9.04H23.6988C23.6668 8.904 23.6508 8.744 23.6508 8.56C23.6508 8.368 23.6668 8.208 23.6988 8.08C23.6668 7.944 23.6508 7.784 23.6508 7.6C23.6508 7.408 23.6668 7.248 23.6988 7.12C23.6668 6.984 23.6508 6.824 23.6508 6.64C23.6508 6.448 23.6668 6.288 23.6988 6.16C23.6668 6.024 23.6508 5.864 23.6508 5.68C23.6508 5.488 23.6668 5.328 23.6988 5.2H24.6588C24.6908 5.328 24.7068 5.488 24.7068 5.68C24.7068 5.864 24.6908 6.024 24.6588 6.16C24.6908 6.288 24.7068 6.448 24.7068 6.64C24.7068 6.824 24.6908 6.984 24.6588 7.12C24.6908 7.248 24.7068 7.408 24.7068 7.6C24.7068 7.784 24.6908 7.944 24.6588 8.08H25.0188C25.0508 8.208 25.0668 8.368 25.0668 8.56ZM27.5388 6.16C27.5708 6.288 27.5868 6.448 27.5868 6.64C27.5868 6.824 27.5708 6.984 27.5388 7.12C27.5708 7.248 27.5868 7.408 27.5868 7.6C27.5868 7.784 27.5708 7.944 27.5388 8.08C27.5708 8.208 27.5868 8.368 27.5868 8.56C27.5868 8.744 27.5708 8.904 27.5388 9.04C27.5708 9.168 27.5868 9.328 27.5868 9.52C27.5868 9.704 27.5708 9.864 27.5388 10H26.5788C26.5468 9.864 26.5308 9.704 26.5308 9.52C26.5308 9.328 26.5468 9.168 26.5788 9.04H26.2188C26.1868 8.904 26.1708 8.744 26.1708 8.56C26.1708 8.368 26.1868 8.208 26.2188 8.08H26.5788C26.5468 7.944 26.5308 7.784 26.5308 7.6C26.5308 7.408 26.5468 7.248 26.5788 7.12C26.5468 6.984 26.5308 6.824 26.5308 6.64C26.5308 6.448 26.5468 6.288 26.5788 6.16C26.5468 6.024 26.5308 5.864 26.5308 5.68C26.5308 5.488 26.5468 5.328 26.5788 5.2H27.5388C27.5708 5.328 27.5868 5.488 27.5868 5.68C27.5868 5.864 27.5708 6.024 27.5388 6.16ZM32.3434 8.08C32.3754 8.208 32.3914 8.368 32.3914 8.56C32.3914 8.744 32.3754 8.904 32.3434 9.04H31.8634C31.8954 9.168 31.9114 9.328 31.9114 9.52C31.9114 9.704 31.8954 9.864 31.8634 10H29.4634C29.4314 9.864 29.4154 9.704 29.4154 9.52C29.4154 9.328 29.4314 9.168 29.4634 9.04H28.9834C28.9514 8.904 28.9354 8.744 28.9354 8.56C28.9354 8.368 28.9514 8.208 28.9834 8.08H28.5034C28.4714 7.944 28.4554 7.784 28.4554 7.6C28.4554 7.408 28.4714 7.248 28.5034 7.12H28.9834C28.9514 6.984 28.9354 6.824 28.9354 6.64C28.9354 6.448 28.9514 6.288 28.9834 6.16H29.4634C29.4314 6.024 29.4154 5.864 29.4154 5.68C29.4154 5.488 29.4314 5.328 29.4634 5.2H31.8634C31.8954 5.328 31.9114 5.488 31.9114 5.68C31.9114 5.864 31.8954 6.024 31.8634 6.16H32.3434C32.3754 6.288 32.3914 6.448 32.3914 6.64C32.3914 6.824 32.3754 6.984 32.3434 7.12H31.3834C31.3514 6.984 31.3354 6.824 31.3354 6.64C31.3354 6.448 31.3514 6.288 31.3834 6.16H29.9434C29.9754 6.288 29.9914 6.448 29.9914 6.64C29.9914 6.824 29.9754 6.984 29.9434 7.12H29.4634C29.4954 7.248 29.5114 7.408 29.5114 7.6C29.5114 7.784 29.4954 7.944 29.4634 8.08H29.9434C29.9754 8.208 29.9914 8.368 29.9914 8.56C29.9914 8.744 29.9754 8.904 29.9434 9.04H31.3834C31.3514 8.904 31.3354 8.744 31.3354 8.56C31.3354 8.368 31.3514 8.208 31.3834 8.08H32.3434ZM36.6681 9.04C36.7001 9.168 36.7161 9.328 36.7161 9.52C36.7161 9.704 36.7001 9.864 36.6681 10H34.7481C34.7161 9.864 34.7001 9.704 34.7001 9.52C34.7001 9.328 34.7161 9.168 34.7481 9.04H34.2681C34.2361 8.904 34.2201 8.744 34.2201 8.56C34.2201 8.368 34.2361 8.208 34.2681 8.08C34.2361 7.944 34.2201 7.784 34.2201 7.6C34.2201 7.408 34.2361 7.248 34.2681 7.12C34.2361 6.984 34.2201 6.824 34.2201 6.64C34.2201 6.448 34.2361 6.288 34.2681 6.16H33.3081C33.2761 6.024 33.2601 5.864 33.2601 5.68C33.2601 5.488 33.2761 5.328 33.3081 5.2H34.2681C34.2361 5.064 34.2201 4.904 34.2201 4.72C34.2201 4.528 34.2361 4.368 34.2681 4.24C34.2361 4.104 34.2201 3.944 34.2201 3.76C34.2201 3.568 34.2361 3.408 34.2681 3.28H35.2281C35.2601 3.408 35.2761 3.568 35.2761 3.76C35.2761 3.944 35.2601 4.104 35.2281 4.24C35.2601 4.368 35.2761 4.528 35.2761 4.72C35.2761 4.904 35.2601 5.064 35.2281 5.2H36.6681C36.7001 5.328 36.7161 5.488 36.7161 5.68C36.7161 5.864 36.7001 6.024 36.6681 6.16H35.2281C35.2601 6.288 35.2761 6.448 35.2761 6.64C35.2761 6.824 35.2601 6.984 35.2281 7.12C35.2601 7.248 35.2761 7.408 35.2761 7.6C35.2761 7.784 35.2601 7.944 35.2281 8.08C35.2601 8.208 35.2761 8.368 35.2761 8.56C35.2761 8.744 35.2601 8.904 35.2281 9.04H36.6681Z" fill="white"/>
</svg>
